<?xml version="1.0" encoding="UTF-8"?>
<svg id="Ebene_1" data-name="Ebene 1" xmlns="http://www.w3.org/2000/svg" xmlns:xlink="http://www.w3.org/1999/xlink" viewBox="0 0 265.19 56.69">
  <defs>
    <style>
      .cls-1 {
        clip-path: url(#clippath);
      }

      .cls-2 {
        fill: none;
      }

      .cls-2, .cls-3, .cls-4, .cls-5, .cls-6, .cls-7 {
        stroke-width: 0px;
      }

      .cls-8 {
        clip-path: url(#clippath-1);
      }

      .cls-9 {
        clip-path: url(#clippath-2);
      }

      .cls-10 {
        font-family: SohoGothicPro-Bold, 'Soho Gothic Pro';
        font-size: 10.28px;
        font-weight: 700;
      }

      .cls-10, .cls-5 {
        fill: #fff;
      }

      .cls-3 {
        fill: #3c3c37;
      }

      .cls-4 {
        fill: #1aaae2;
      }

      .cls-6 {
        fill: #ffed00;
      }

      .cls-7 {
        fill: #004a7f;
      }
    </style>
    <clipPath id="clippath">
      <rect class="cls-2" y="0" width="255.12" height="53.77"/>
    </clipPath>
    <clipPath id="clippath-1">
      <rect class="cls-2" y="0" width="255.12" height="53.77"/>
    </clipPath>
    <clipPath id="clippath-2">
      <rect class="cls-2" y="0" width="255.12" height="53.77"/>
    </clipPath>
  </defs>
  <rect class="cls-7" y="18.8" width="151.52" height="34.97"/>
  <g class="cls-1">
    <path class="cls-5" d="m37.3,35.94c0-4.76-3.92-8.64-8.74-8.64-1.36,0-2.67.31-3.89.91-1.22-.6-2.53-.91-3.89-.91-4.82,0-8.74,3.87-8.74,8.64s3.92,8.64,8.74,8.64c1.36,0,2.67-.3,3.89-.91,1.22.6,2.53.91,3.89.91,4.82,0,8.74-3.87,8.74-8.64m-2.13,0c0,3.66-3.01,6.63-6.73,6.63-.74,0-1.46-.12-2.12-.34-.59-.19-1.15-.46-1.65-.8-.5.34-1.06.61-1.65.8-.67.22-1.38.34-2.12.34-3.71,0-6.73-2.97-6.73-6.63s3.01-6.63,6.73-6.63c.74,0,1.46.12,2.12.34.59.19,1.15.46,1.65.8.51-.34,1.06-.61,1.65-.8.67-.22,1.38-.34,2.12-.34,3.71,0,6.73,2.97,6.73,6.63"/>
    <path class="cls-5" d="m28.44,40.66c2.61,0,4.74-2.1,4.74-4.68s-2.13-4.68-4.74-4.68c-.18,0-.38.01-.59.04-.6.07-1.16.25-1.67.53-.59.32-1.12.78-1.54,1.33-.6.79-.92,1.74-.94,2.73v.06s0,.06,0,.06c-.02.98-.58,1.86-1.46,2.32-.39.2-.81.3-1.25.3-.1,0-.2,0-.33-.02-1.36-.16-2.39-1.31-2.39-2.66s1.03-2.5,2.39-2.66c.12-.01.23-.02.33-.02.44,0,.86.1,1.25.31l.09.05.04-.1c.23-.56.53-1.08.91-1.55l.07-.09-.1-.05c-.51-.28-1.08-.45-1.67-.53-.22-.03-.41-.04-.59-.04-2.61,0-4.74,2.1-4.74,4.68s2.13,4.68,4.74,4.68c.18,0,.37-.01.59-.04.6-.07,1.16-.25,1.67-.53.59-.32,1.13-.78,1.54-1.32.6-.79.92-1.74.94-2.73v-.06s0-.06,0-.06c.02-.98.58-1.86,1.46-2.31.39-.2.81-.31,1.25-.31.1,0,.2,0,.33.02,1.36.16,2.39,1.31,2.39,2.66s-1.03,2.5-2.39,2.66c-.13.01-.23.02-.33.02-.44,0-.86-.1-1.25-.3l-.09-.05-.04.1c-.23.56-.53,1.08-.91,1.55l-.07.09.1.05c.51.28,1.07.45,1.67.53.22.03.41.04.59.04"/>
    <path class="cls-5" d="m20.99,36.99c-.56,0-1.01-.45-1.01-1.01s.45-1.01,1.01-1.01,1.01.45,1.01,1.01-.45,1.01-1.01,1.01"/>
    <path class="cls-5" d="m53.8,33.14c0-2.24-1.6-3.82-3.74-3.82h-6.73v13.21h6.73c2.25,0,4.06-1.58,4.06-4.06,0-.7-.47-2.28-1.74-2.68,1.01-.46,1.41-1.8,1.41-2.65m-2.03-.08c0,.64-.34,1.83-1.96,1.83h-4.45v-3.48h4.45c1.67,0,1.96,1.15,1.96,1.65m.33,5.59c0,1.05-.6,1.79-2.03,1.79h-4.71v-3.71h4.51c1.71,0,2.23.92,2.23,1.92m79.74-.13c.19,1.31,1.53,2.35,2.97,2.35,1.01,0,1.89-.37,2.46-1l1.45,1.31c-.92,1.04-2.35,1.64-3.91,1.64-2.8,0-5.08-2.28-5.08-5.08s2.08-5.08,4.88-5.08,4.88,2.28,4.88,5.08v.78h-7.65Zm2.77-3.91c-1.38,0-2.36.9-2.77,2.15h5.55c-.41-1.25-1.39-2.15-2.77-2.15m-53.49,3.91v-.78c0-2.8-2.08-5.08-4.88-5.08s-4.88,2.28-4.88,5.08,2.28,5.08,5.08,5.08c1.56,0,2.98-.61,3.91-1.64l-1.45-1.31c-.57.63-1.45,1-2.46,1-1.44,0-2.78-1.04-2.97-2.35h7.65Zm-2.11-1.75h-5.55c.41-1.25,1.39-2.15,2.77-2.15s2.36.9,2.77,2.15m15.8,5.8h-2.61l-3.39-5.08h-3.3v5.08h-2.2v-13.24c1.85,0,4.88.02,6.72.02,2.75.02,4.19,2.24,4.19,4.25,0,1.6-.73,3.21-2.95,3.66l3.53,5.16v.15Zm-2.78-8.92c0-.93-.62-2.26-2-2.26h-4.53v4.12h4.53c1.4,0,2-.93,2-1.86m24.95,8.9v-5.86c0-2.58-1.87-4.03-3.81-4.03-1.03,0-2.52.42-3.35,1.23l-.13-.96h-1.81v9.6h2.01v-5.73c0-1.25,1.6-2.3,2.85-2.3s2.22.95,2.22,2.2v5.84h2.03Zm-56.68-9.61v5.86c0,2.58,1.87,4.03,3.81,4.03,1.03,0,2.52-.37,3.35-1.19l.13.91h1.81v-9.6h-2.01v5.73c0,1.25-1.6,2.3-2.85,2.3s-2.22-.95-2.22-2.2v-5.84h-2.03Zm-4.22,9.6h2.01v-13.21h-2.01v13.21Zm47.82.02l-.21-.92c-.88.74-2.02,1.19-3.26,1.19-2.8,0-5.08-2.28-5.08-5.08s2.28-5.08,5.08-5.08c1.24,0,2.38.45,3.26,1.19h0s.21-.92.21-.92h1.79v9.61h-1.79Zm-3.47-7.93c-1.72,0-3.13,1.4-3.13,3.13s1.4,3.13,3.13,3.13,3.13-1.4,3.13-3.13-1.4-3.13-3.13-3.13m28.1-1.17l-1.82-1.38-.87,1.22c-.69-.4-1.5-.63-2.35-.63-2.63,0-4.77,2.16-4.77,4.81s2.1,4.76,4.7,4.8c0,0,0,0,0,0,1.4,0,2.9.53,2.9,2.15s-1.26,2.31-2.86,2.31-2.96-.99-2.96-2.52h-1.93c0,2.7,2.09,4.47,4.88,4.47s4.83-1.49,4.83-4.26c0-1.27-.43-2.24-1.99-3.07,1.2-.87,1.99-2.29,1.99-3.89,0-.98-.3-1.9-.8-2.66l1.07-1.36Zm-2.27,4.02c0,1.54-1.24,2.79-2.77,2.79s-2.77-1.25-2.77-2.79,1.24-2.79,2.77-2.79,2.77,1.25,2.77,2.79"/>
  </g>
  <text class="cls-10" transform="translate(129.61 12.82)"><tspan x="0" y="0"> </tspan></text>
  <rect class="cls-4" x="155.89" y="18.8" width="81.59" height="34.97"/>
  <g class="cls-8">
    <path class="cls-5" d="m221.99,42.51v-13.32h-3.35v5.16h-5v-5.16h-3.37v13.32h3.37v-5.61h5v5.61h3.35Zm-13.83-3.75c0-2.1-1.04-3.15-3.26-4.07l-1.88-.77c-1.22-.5-1.5-.77-1.5-1.45,0-.91.72-1.18,2.08-1.18,1.49,0,2.65.11,3.89.21v-2.15c-.79-.18-2.29-.45-4.07-.45-3.37,0-5.2,1.04-5.2,3.67,0,2.2,1.18,3.15,3.08,3.96l1.94.82c1.25.54,1.58.84,1.58,1.6,0,1-.63,1.45-2.13,1.45-1.74,0-2.97-.13-4.12-.21v2.19c.86.21,2.72.43,4.5.43,3.23,0,5.11-1.29,5.11-4.05m-11.65,3.75v-2.42h-5.72v-3.24h5.34v-2.31h-5.34v-2.9h5.72v-2.44h-9.07v13.32h9.07Zm-11.68,0v-13.32h-3.28l-2.6,4.71c-.29.5-.57,1.09-.84,1.65h-.04c-.25-.56-.54-1.13-.82-1.63l-2.58-4.73h-3.28v13.32h3.23v-6.61c0-.79-.02-1.4-.05-2.17h.04c.27.57.57,1.18.86,1.7l1.67,3.12h1.95l1.7-3.12c.29-.52.59-1.09.86-1.7h.04c-.05.77-.07,1.38-.07,2.17v6.61h3.23Z"/>
  </g>
  <polygon class="cls-6" points="178.02 0 178.02 14.39 242.01 14.39 242.01 19.53 250.21 14.39 255.12 14.39 255.12 0 178.02 0"/>
  <g class="cls-9">
    <path class="cls-3" d="m249.44,9.24v-4.58h-1.05v2.2c0,.28,0,.57.02.78h-.01c-.09-.2-.22-.45-.33-.65l-1.34-2.34h-1.18v4.58h1.05v-2.27c0-.25-.01-.5-.02-.74h.01c.09.2.21.43.32.63l1.33,2.38h1.2Zm-5.77-2.06c0,.98-.32,1.27-.86,1.27s-.86-.3-.86-1.27v-.46c0-.96.32-1.26.86-1.26s.86.31.86,1.26v.46Zm1.13,0v-.47c0-1.59-.81-2.16-2-2.16s-1.99.57-1.99,2.16v.47c0,1.59.81,2.16,1.99,2.16s2-.57,2-2.16m-4.74-2.53h-1.15v4.58h1.15v-4.58Zm-1.76.84v-.84h-3.81v.84h1.33v3.74h1.16v-3.74h1.33Zm-4.42-.84h-1.15v4.58h1.15v-4.58Zm-3.04,2.52c0,.98-.3,1.26-1.07,1.26h-.47v-2.96h.47c.77,0,1.07.25,1.07,1.23v.47Zm1.13,0v-.47c0-1.44-.68-2.1-2.22-2.1-.63,0-.99.01-1.58.06v4.58c.59.04.98.06,1.58.06,1.57,0,2.22-.65,2.22-2.12m-4.55,2.07v-.83h-1.97v-1.12h1.84v-.79h-1.84v-1h1.97v-.84h-3.12v4.58h3.12Zm-4.9-4.58h-1.15l-.62,1.21c-.1.21-.23.47-.3.7h-.03c-.08-.23-.19-.49-.29-.7l-.62-1.21h-1.18l1.53,2.93v1.65h1.12v-1.65l1.53-2.93Zm-4.43.84v-.84h-3.81v.84h1.33v3.74h1.16v-3.74h1.33Zm-4.42-.84h-1.15v4.58h1.15v-4.58Zm-2.05,4.58v-4.58h-1.05v2.2c0,.28,0,.57.02.78h-.01c-.09-.2-.22-.45-.33-.65l-1.34-2.34h-1.18v4.58h1.05v-2.27c0-.25-.01-.5-.02-.74h.01c.09.2.21.43.32.63l1.33,2.38h1.2Zm-4.76-1.86v-2.73h-1.13v2.7c0,.81-.18,1.12-.8,1.12s-.8-.31-.8-1.12v-2.7h-1.14v2.73c0,1.32.71,1.96,1.94,1.96s1.93-.64,1.93-1.96m-4.74,1.86v-4.58h-1.13l-.9,1.62c-.1.17-.2.38-.29.57h-.01c-.09-.19-.19-.39-.28-.56l-.89-1.63h-1.13v4.58h1.11v-2.27c0-.27,0-.48-.02-.75h.01c.09.2.2.41.3.59l.57,1.07h.67l.59-1.07c.1-.18.2-.38.3-.59h.01c-.02.27-.02.47-.02.75v2.27h1.11Zm-5.53,0v-4.58h-1.13l-.9,1.62c-.1.17-.2.38-.29.57h-.01c-.09-.19-.19-.39-.28-.56l-.89-1.63h-1.13v4.58h1.11v-2.27c0-.27,0-.48-.02-.75h.01c.09.2.2.41.3.59l.57,1.07h.67l.59-1.07c.1-.18.2-.38.3-.59h.01c-.02.27-.02.47-.02.75v2.27h1.11Zm-6.51-2.06c0,.98-.32,1.27-.86,1.27s-.86-.3-.86-1.27v-.46c0-.96.31-1.26.86-1.26s.86.31.86,1.26v.46Zm1.13,0v-.47c0-1.59-.81-2.16-2-2.16s-1.99.57-1.99,2.16v.47c0,1.59.81,2.16,1.99,2.16s2-.57,2-2.16m-4.37,2.04v-.82c-.31.02-.75.05-1.12.05-.68,0-1.01-.23-1.01-1.24v-.53c0-1,.33-1.23,1.01-1.23.38,0,.82.03,1.13.06v-.82c-.23-.06-.86-.13-1.24-.13-1.31,0-2.06.47-2.06,2.12v.53c0,1.65.75,2.13,2.06,2.13.38,0,1.01-.07,1.24-.12"/>
  </g>
</svg>