<svg id="Ebene_1" xmlns="http://www.w3.org/2000/svg" viewBox="0 0 127 106"><style>.st0{fill:#1d1d1b}</style><path class="st0" d="M47.9 54.5c0 1.8 1.4 3.2 3.2 3.2 1.8 0 3.2-1.4 3.2-3.2 0-1.8-1.4-3.2-3.2-3.2-1.8.1-3.2 1.5-3.2 3.2z"/><path class="st0" d="M79.9 22.5c-5 0-10 1.2-14.4 3.4-15.8-7.9-35-1.6-43 14.2s-1.6 35 14.2 43c9 4.5 19.7 4.5 28.7 0 15.8 7.9 35 1.5 42.9-14.3s1.5-35-14.3-42.9c-4.3-2.2-9.1-3.4-14.1-3.4zm0 57.7c-5.1 0-10.2-1.5-14.4-4.4-11.8 7.9-27.7 4.8-35.7-6.9-7.9-11.8-4.8-27.7 6.9-35.7 4.2-2.9 9.2-4.4 14.3-4.4 2.8 0 5.5.4 8.1 1.3 2.2.7 4.4 1.8 6.3 3.1 11.8-8 27.7-4.9 35.7 6.9s4.9 27.7-6.9 35.7c-4.1 2.9-9.1 4.4-14.3 4.4z"/><path class="st0" d="M79.9 36.5c-.8 0-1.5.1-2.2.2-2.2.3-4.4.9-6.3 2-2.3 1.3-4.3 3-5.8 5.1-2.2 3-3.5 6.7-3.5 10.5v.4c-.1 5.9-5 10.6-10.9 10.6-.4 0-.9 0-1.3-.1-6-.7-10.2-6.1-9.5-12.1.6-5 4.5-8.9 9.5-9.5.4-.1.9-.1 1.3-.1 1.7 0 3.5.4 5 1.2.9-2.2 2.1-4.3 3.5-6.2-2-1.1-4.1-1.7-6.3-2-.7-.1-1.5-.1-2.2-.2-9.9 0-18 8.1-18 18s8.1 18 18 18c.8 0 1.5-.1 2.2-.2C62.3 71 69 63.5 69.1 54.5v-.4c.1-4 2.3-7.6 5.9-9.4 1.5-.8 3.3-1.2 5-1.2.4 0 .9 0 1.3.1 6 .7 10.2 6.1 9.5 12.1-.6 5-4.5 8.9-9.5 9.5-.4.1-.9.1-1.3.1-1.7 0-3.5-.4-5-1.2-.9 2.2-2.1 4.3-3.6 6.2 2 1.1 4.1 1.7 6.3 2 .7.1 1.5.1 2.2.2 9.9 0 18-8.1 18-18s-8-18-18-18z"/></svg>